<?xml version="1.0" encoding="utf-8"?>
<!-- Generator: Adobe Illustrator 22.0.1, SVG Export Plug-In . SVG Version: 6.00 Build 0)  -->
<svg version="1.1" id="Calque_1" xmlns="http://www.w3.org/2000/svg" xmlns:xlink="http://www.w3.org/1999/xlink" x="0px" y="0px"
	 viewBox="0 0 522.8 112" style="enable-background:new 0 0 522.8 112;" xml:space="preserve">
<style type="text/css">
	.st0{fill:url(#SVGID_1_);}
	.st1{fill:url(#SVGID_2_);}
	.st2{fill:url(#SVGID_3_);}
	.st3{fill:url(#SVGID_4_);}
	.st4{fill:url(#SVGID_5_);}
	.st5{fill:url(#SVGID_6_);}
	.st6{fill:url(#SVGID_7_);}
	.st7{fill:url(#SVGID_8_);}
</style>
<g>
	<g>
		<linearGradient id="SVGID_1_" gradientUnits="userSpaceOnUse" x1="0" y1="62.009" x2="522.7544" y2="62.009">
			<stop  offset="1.953869e-07" style="stop-color:#A250E5"/>
			<stop  offset="1" style="stop-color:#89216B"/>
		</linearGradient>
		<path class="st0" d="M37.6,33.9c3.5,2.5,6,5.7,7.5,9.8V30.9h11.4v54.9H45.1V73.1c-1.5,4.1-4,7.3-7.5,9.8
			c-3.5,2.5-7.8,3.7-12.8,3.7c-4.8,0-9.1-1.1-12.8-3.4c-3.8-2.3-6.7-5.5-8.8-9.8C1.1,69.1,0,64.1,0,58.3c0-5.7,1.1-10.7,3.2-15
			c2.1-4.3,5.1-7.5,8.8-9.8c3.8-2.3,8-3.4,12.8-3.4C29.8,30.2,34.1,31.4,37.6,33.9z M16.2,45c-3,3.2-4.5,7.7-4.5,13.3
			c0,5.7,1.5,10.1,4.5,13.3c3,3.2,7.1,4.8,12.1,4.8c3.2,0,6-0.7,8.6-2.2c2.5-1.5,4.5-3.6,6-6.3c1.5-2.7,2.2-5.9,2.2-9.6
			c0-3.6-0.7-6.8-2.2-9.5c-1.5-2.8-3.5-4.9-6-6.4c-2.5-1.5-5.4-2.2-8.6-2.2C23.3,40.2,19.2,41.8,16.2,45z"/>
		<linearGradient id="SVGID_2_" gradientUnits="userSpaceOnUse" x1="0" y1="62.009" x2="522.7544" y2="62.009">
			<stop  offset="1.953869e-07" style="stop-color:#A250E5"/>
			<stop  offset="1" style="stop-color:#89216B"/>
		</linearGradient>
		<path class="st1" d="M114.4,33.6c3.8,2.3,6.7,5.5,8.8,9.8c2.1,4.3,3.2,9.2,3.2,15c0,5.8-1.1,10.8-3.2,15.1
			c-2.1,4.3-5.1,7.5-8.8,9.8c-3.8,2.3-8,3.4-12.8,3.4c-5,0-9.2-1.2-12.8-3.7c-3.5-2.5-6-5.7-7.4-9.8V112H70.1V30.9h11.4v12.8
			c1.4-4.1,3.9-7.3,7.4-9.8c3.5-2.5,7.8-3.7,12.8-3.7C106.4,30.2,110.7,31.3,114.4,33.6z M89.5,42.4c-2.5,1.5-4.5,3.6-6,6.4
			c-1.5,2.8-2.2,5.9-2.2,9.5c0,3.7,0.7,6.8,2.2,9.6c1.5,2.7,3.5,4.8,6,6.3c2.5,1.5,5.4,2.2,8.6,2.2c5.1,0,9.1-1.6,12.2-4.8
			c3.1-3.2,4.6-7.7,4.6-13.3c0-5.6-1.5-10-4.6-13.3c-3.1-3.3-7.1-4.9-12.2-4.9C94.9,40.2,92.1,40.9,89.5,42.4z"/>
		<linearGradient id="SVGID_3_" gradientUnits="userSpaceOnUse" x1="0" y1="62.009" x2="522.7544" y2="62.009">
			<stop  offset="1.953869e-07" style="stop-color:#A250E5"/>
			<stop  offset="1" style="stop-color:#89216B"/>
		</linearGradient>
		<path class="st2" d="M181.7,33.6c3.8,2.3,6.7,5.5,8.8,9.8c2.1,4.3,3.2,9.2,3.2,15c0,5.8-1.1,10.8-3.2,15.1
			c-2.1,4.3-5.1,7.5-8.8,9.8c-3.8,2.3-8,3.4-12.8,3.4c-5,0-9.2-1.2-12.8-3.7c-3.5-2.5-6-5.7-7.4-9.8V112h-11.4V30.9h11.4v12.8
			c1.4-4.1,3.9-7.3,7.4-9.8c3.5-2.5,7.8-3.7,12.8-3.7C173.7,30.2,178,31.3,181.7,33.6z M156.8,42.4c-2.5,1.5-4.5,3.6-6,6.4
			c-1.5,2.8-2.2,5.9-2.2,9.5c0,3.7,0.7,6.8,2.2,9.6c1.5,2.7,3.5,4.8,6,6.3c2.5,1.5,5.4,2.2,8.6,2.2c5.1,0,9.1-1.6,12.2-4.8
			c3.1-3.2,4.6-7.7,4.6-13.3c0-5.6-1.5-10-4.6-13.3c-3.1-3.3-7.1-4.9-12.2-4.9C162.2,40.2,159.4,40.9,156.8,42.4z"/>
		<linearGradient id="SVGID_4_" gradientUnits="userSpaceOnUse" x1="0" y1="62.009" x2="522.7544" y2="62.009">
			<stop  offset="1.953869e-07" style="stop-color:#A250E5"/>
			<stop  offset="1" style="stop-color:#89216B"/>
		</linearGradient>
		<path class="st3" d="M211.2,30.9l16.5,40.4l15.3-40.4h12.7L222.3,112h-12.7l11.9-27.4l-23.1-53.6H211.2z"/>
		<linearGradient id="SVGID_5_" gradientUnits="userSpaceOnUse" x1="0" y1="62.009" x2="522.7544" y2="62.009">
			<stop  offset="1.953869e-07" style="stop-color:#A250E5"/>
			<stop  offset="1" style="stop-color:#89216B"/>
		</linearGradient>
		<path class="st4" d="M330.7,34c3.8,2.2,6.8,5.5,9,9.7c2.2,4.2,3.2,9.2,3.2,14.9c0,5.7-1.1,10.6-3.2,14.8c-2.2,4.2-5.2,7.5-9,9.7
			c-3.9,2.3-8.2,3.4-13.2,3.4c-5.6,0-10.3-1.4-14.2-4.3c-3.9-2.9-6.5-6.6-8-11.4v40.7h-7V31.4h7v15c1.5-4.7,4.1-8.5,8-11.4
			c3.9-2.9,8.6-4.3,14.2-4.3C322.4,30.7,326.8,31.8,330.7,34z M305.1,39.6c-3.1,1.8-5.5,4.3-7.2,7.6c-1.7,3.3-2.6,7.1-2.6,11.4
			c0,4.3,0.9,8.1,2.6,11.4c1.7,3.3,4.1,5.8,7.2,7.6s6.6,2.7,10.4,2.7c6.2,0,11.1-1.9,14.8-5.8c3.7-3.9,5.5-9.2,5.5-15.9
			c0-6.7-1.8-12-5.5-15.9c-3.7-3.9-8.6-5.8-14.8-5.8C311.7,36.9,308.2,37.8,305.1,39.6z"/>
		<linearGradient id="SVGID_6_" gradientUnits="userSpaceOnUse" x1="0" y1="62.009" x2="522.7544" y2="62.009">
			<stop  offset="1.953869e-07" style="stop-color:#A250E5"/>
			<stop  offset="1" style="stop-color:#89216B"/>
		</linearGradient>
		<path class="st5" d="M392.5,35c3.9,2.9,6.6,6.6,8,11.4v-15h6.9v54.4h-6.9v-15c-1.5,4.7-4.1,8.5-8,11.4c-3.9,2.9-8.6,4.3-14.1,4.3
			c-4.9,0-9.3-1.1-13.2-3.4c-3.9-2.3-6.9-5.5-9.1-9.7c-2.2-4.2-3.2-9.2-3.2-14.8c0-5.7,1.1-10.7,3.2-14.9c2.2-4.2,5.2-7.4,9-9.7
			c3.9-2.2,8.3-3.3,13.3-3.3C383.9,30.7,388.6,32.1,392.5,35z M365.5,42.7c-3.7,3.9-5.5,9.2-5.5,15.9c0,6.7,1.8,12,5.5,15.9
			c3.7,3.9,8.6,5.8,14.7,5.8c3.9,0,7.3-0.9,10.4-2.7s5.5-4.3,7.3-7.6c1.8-3.3,2.6-7.1,2.6-11.4c0-4.3-0.9-8.1-2.6-11.4
			c-1.8-3.3-4.2-5.8-7.3-7.6c-3.1-1.8-6.6-2.7-10.4-2.7C374.1,36.9,369.2,38.8,365.5,42.7z"/>
		<linearGradient id="SVGID_7_" gradientUnits="userSpaceOnUse" x1="0" y1="62.009" x2="522.7544" y2="62.009">
			<stop  offset="1.953869e-07" style="stop-color:#A250E5"/>
			<stop  offset="1" style="stop-color:#89216B"/>
		</linearGradient>
		<path class="st6" d="M463.8,36.2c4.6,3.7,7.3,8.5,8.3,14.6h-7.3c-0.7-4.3-2.8-7.7-6.1-10.2c-3.3-2.5-7.4-3.7-12.3-3.7
			c-3.5,0-6.8,0.8-9.7,2.4c-3,1.6-5.3,4-7.1,7.3c-1.8,3.3-2.6,7.3-2.6,12.1s0.9,8.8,2.6,12.1c1.8,3.3,4.1,5.7,7.1,7.3
			c3,1.6,6.2,2.4,9.7,2.4c4.9,0,8.9-1.2,12.3-3.7c3.3-2.5,5.3-5.9,6.1-10.2h7.3c-1,6-3.8,10.9-8.3,14.6c-4.6,3.7-10.3,5.5-17.2,5.5
			c-5.2,0-9.8-1.1-13.8-3.3c-4-2.2-7.2-5.4-9.4-9.7c-2.3-4.2-3.4-9.2-3.4-14.9c0-5.7,1.1-10.7,3.4-14.9c2.3-4.2,5.4-7.4,9.4-9.7
			c4-2.2,8.6-3.3,13.8-3.3C453.5,30.7,459.2,32.5,463.8,36.2z"/>
		<linearGradient id="SVGID_8_" gradientUnits="userSpaceOnUse" x1="0" y1="62.009" x2="522.7544" y2="62.009">
			<stop  offset="1.953869e-07" style="stop-color:#A250E5"/>
			<stop  offset="1" style="stop-color:#89216B"/>
		</linearGradient>
		<path class="st7" d="M513.8,85.8l-22-24.9v24.9h-7.1V12.1h7.1v43.3l21.6-23.9h8.7l-25,26.9l25.7,27.5H513.8z"/>
	</g>
</g>
</svg>
