<?xml version="1.0" standalone="no"?>
<!DOCTYPE svg PUBLIC "-//W3C//DTD SVG 20010904//EN"
 "http://www.w3.org/TR/2001/REC-SVG-20010904/DTD/svg10.dtd">
<svg version="1.0" xmlns="http://www.w3.org/2000/svg"
 width="512.000000pt" height="512.000000pt" viewBox="0 0 512.000000 512.000000"
 preserveAspectRatio="xMidYMid meet">
<metadata>
Created by potrace 1.11, written by Peter Selinger 2001-2013
</metadata>
<g transform="translate(0.000000,512.000000) scale(0.100000,-0.100000)"
fill="#000000" stroke="none">
<path d="M20 5105 c-10 -12 -12 -538 -12 -2551 0 -1541 3 -2539 9 -2545 5 -5
1003 -8 2554 -7 l2544 3 0 2555 0 2555 -2541 3 c-2253 2 -2543 0 -2554 -13z
m5030 -2545 l0 -2480 -22 -1 c-116 -4 -4930 -1 -4934 4 -4 4 -8 4733 -4 4935
l0 22 2480 0 2480 0 0 -2480z"/>
<path d="M1531 4285 c-4 -5 -27 -62 -50 -125 -79 -214 -323 -865 -332 -885
-19 -45 -219 -582 -219 -591 0 -6 92 -9 232 -9 l233 0 50 147 c28 81 54 150
58 154 10 10 607 8 617 -2 4 -5 29 -74 55 -154 l48 -145 233 0 c129 0 234 3
234 7 0 4 -70 195 -157 425 -86 230 -162 436 -170 458 -7 22 -18 49 -23 60 -5
11 -59 155 -120 320 -61 165 -116 311 -123 325 l-12 25 -273 0 c-171 0 -276
-4 -281 -10z m299 -457 c0 -5 35 -109 79 -231 43 -122 81 -231 85 -242 6 -20
2 -20 -182 -18 -103 1 -188 2 -189 2 -1 1 19 58 44 129 25 70 66 189 91 264
40 117 49 135 60 121 6 -9 12 -21 12 -25z"/>
<path d="M2889 4210 c-3 -533 0 -1522 5 -1527 3 -4 110 -7 236 -7 l230 -1 0
301 0 301 163 0 c264 1 358 16 467 74 177 94 268 304 236 539 -28 196 -143
327 -339 381 -79 21 -97 22 -539 23 l-458 2 -1 -86z m715 -261 c131 -31 179
-186 86 -279 -46 -46 -108 -63 -237 -65 l-93 -1 0 177 c0 161 2 178 18 181 33
7 178 -2 226 -13z"/>
<path d="M983 2452 c-42 -2 -53 -7 -54 -20 0 -9 -1 -372 -1 -807 l-1 -790 233
0 c132 0 234 4 238 9 3 5 6 140 6 300 l1 291 185 1 c252 1 310 10 429 67 117
55 212 180 240 317 51 245 -41 479 -223 569 -115 57 -167 62 -606 64 -217 1
-419 1 -447 -1z m667 -348 c100 -30 147 -113 120 -212 -11 -44 -53 -86 -110
-110 -22 -10 -75 -16 -147 -17 l-113 -3 0 179 0 180 103 -2 c56 -1 122 -8 147
-15z"/>
<path d="M2500 2445 c0 -3 34 -60 75 -126 41 -67 75 -125 75 -129 0 -5 4 -10
8 -12 4 -1 23 -28 41 -58 18 -30 122 -197 230 -370 l196 -315 1 -295 c1 -162
2 -298 3 -301 0 -4 107 -7 236 -7 l235 0 0 301 0 300 108 174 c59 95 120 195
137 221 16 26 103 166 194 312 90 146 171 275 179 288 l14 22 -239 0 -238 0
-35 -57 c-19 -31 -45 -73 -56 -92 -12 -20 -65 -108 -119 -196 -54 -88 -116
-190 -137 -227 -22 -38 -43 -68 -46 -68 -6 0 -213 336 -234 380 -5 8 -41 69
-82 135 l-74 120 -236 3 c-130 1 -236 0 -236 -3z"/>
</g>
</svg>
