<svg xmlns="http://www.w3.org/2000/svg" viewBox="0 0 482.831 294.289" class="clouds">
  <g id="Clouds" transform="translate(-1170 -219.064)" fill="rgba(217,217,217,0.21)">
    <g id="md-cloudy" transform="translate(1462.497 219.064)">
      <path id="Tracé_8" data-name="Tracé 8" class="cls-1" d="M123.4,182.885c.17-.042.34-.042.51-.085A2.534,2.534,0,0,1,123.4,182.885Z" transform="translate(-84.569 -150.171)"/>
      <path id="Tracé_9" data-name="Tracé 9" class="cls-1" d="M185.457,154.093A59.5,59.5,0,0,0,127.167,106c-16.867,0-32.289,5.948-42.868,19.288,14.572,1.1,28.083,6.458,38.534,16.909a60.8,60.8,0,0,1,15.889,27.53H124.49a47.242,47.242,0,0,0-44.907-31.864,48.052,48.052,0,0,0-8.752.85C48.144,143.387,32,162.251,32,185.66a47.714,47.714,0,0,0,47.584,47.8H182.7a39.733,39.733,0,0,0,2.762-79.363Z" transform="translate(-32 -106)"/>
    </g>
    <g id="md-cloudy-2" data-name="md-cloudy" transform="translate(1170 405.254)">
      <path id="Tracé_8-2" data-name="Tracé 8" class="cls-1" d="M123.4,182.872c.144-.036.288-.036.432-.072A2.15,2.15,0,0,1,123.4,182.872Z" transform="translate(-90.466 -155.127)"/>
      <path id="Tracé_9-2" data-name="Tracé 9" class="cls-1" d="M162.151,146.789A50.467,50.467,0,0,0,112.714,106c-14.305,0-27.385,5.045-36.357,16.359,12.359.937,23.818,5.477,32.682,14.341a51.565,51.565,0,0,1,13.476,23.349H110.444a40.067,40.067,0,0,0-38.087-27.025,40.753,40.753,0,0,0-7.423.721C45.693,137.709,32,153.708,32,173.562A40.468,40.468,0,0,0,72.357,214.1h87.452a33.7,33.7,0,0,0,2.342-67.31Z" transform="translate(-32 -106)"/>
    </g>
  </g>
</svg>
