<svg xmlns="http://www.w3.org/2000/svg" viewBox="0 0 441.232 298.067" class="planes">
  <g id="Planes" transform="translate(-1138 -321.901)">
    <path id="ios-paper-plane" fill="#a250e5" d="M86.751,48.11,48.428,68.843a.8.8,0,0,0,.058,1.428l6.537,2.463a1.546,1.546,0,0,1,.863.805L60.966,84c.1.46.949.585.959.115l-.776-8.646a3.081,3.081,0,0,1,.7-1.745L81.718,54.254a.48.48,0,0,1,.431-.125.455.455,0,0,1,.249.729L65.27,75.812a3.83,3.83,0,0,0-.671,1.725L63.573,85c.086.652.594.9,1.006.316l3.69-4.333a.772.772,0,0,1,1.083-.182l9.509,6.93a.766.766,0,0,0,1.208-.47l7.8-38.294A.778.778,0,0,0,86.751,48.11Z" transform="translate(1449.983 532.079)"/>
    <path id="ios-paper-plane-2" data-name="ios-paper-plane" fill="#a250e5" d="M68.482,48.065,48.234,59.02a.423.423,0,0,0,.03.755l3.454,1.3a.817.817,0,0,1,.456.425l2.684,5.525c.051.243.5.309.506.061l-.41-4.568a1.628,1.628,0,0,1,.37-.922l10.5-10.286a.253.253,0,0,1,.228-.066.24.24,0,0,1,.132.385L57.133,62.7a2.024,2.024,0,0,0-.355.912l-.542,3.945c.046.344.314.476.532.167l1.95-2.289a.408.408,0,0,1,.572-.1L64.314,69a.4.4,0,0,0,.638-.248l4.123-20.233A.411.411,0,0,0,68.482,48.065Z" transform="translate(1089.983 273.885)"/>
    <path id="Tracé_10" data-name="Tracé 10" fill="#a250e5" d="M.662.07a.453.453,0,0,0-.653.5L4.554,22.884a.446.446,0,0,0,.7.274L10.8,19.12a.45.45,0,0,1,.631.106l2.15,2.524c.24.341.536.2.586-.184l-.6-4.351a2.231,2.231,0,0,0-.391-1.005L3.2,4a.265.265,0,0,1,.145-.424.279.279,0,0,1,.251.073L15.171,14.993a1.8,1.8,0,0,1,.408,1.016l-.452,5.038c.006.274.5.2.558-.067l2.96-6.093a.9.9,0,0,1,.5-.469l3.809-1.435a.467.467,0,0,0,.034-.832L.662.07Z" transform="translate(1556.003 505.721)"/>
    <path id="Tracé_11" data-name="Tracé 11" fill="#a250e5" d="M.793.081a.543.543,0,0,0-.783.6L5.456,27.411a.535.535,0,0,0,.843.328L12.936,22.9a.539.539,0,0,1,.756.127l2.576,3.024c.288.408.642.234.7-.221l-.716-5.212a2.673,2.673,0,0,0-.468-1.2L3.831,4.791A.317.317,0,0,1,4,4.283a.335.335,0,0,1,.3.087L18.174,17.957a2.15,2.15,0,0,1,.488,1.218l-.542,6.035c.007.328.6.241.669-.08l3.546-7.3a1.079,1.079,0,0,1,.6-.562L27.5,15.549a.559.559,0,0,0,.04-1L.793.081Z" transform="translate(1184.288 404.837)"/>
  </g>
</svg>
